<?xml version="1.0" encoding="utf-8"?>
<!-- Generator: Adobe Illustrator 17.1.0, SVG Export Plug-In . SVG Version: 6.00 Build 0)  -->
<!DOCTYPE svg PUBLIC "-//W3C//DTD SVG 1.1//EN" "http://www.w3.org/Graphics/SVG/1.1/DTD/svg11.dtd">
<svg version="1.1" id="Layer_1" xmlns="http://www.w3.org/2000/svg" xmlns:xlink="http://www.w3.org/1999/xlink" x="0px" y="0px"
	 viewBox="0 0 288 288" enable-background="new 0 0 288 288" xml:space="preserve">
<circle fill="#7CD1E4" cx="139.652" cy="136.694" r="111.126"/>
<g>
	<g>
		<defs>
			<rect id="SVGID_1_" x="49.782" y="51.726" width="175.469" height="175.469"/>
		</defs>
		<clipPath id="SVGID_2_">
			<use xlink:href="#SVGID_1_"  overflow="visible"/>
		</clipPath>
		<g clip-path="url(#SVGID_2_)">
			<defs>
				<rect id="SVGID_3_" x="49.782" y="51.726" width="175.469" height="175.469"/>
			</defs>
			<clipPath id="SVGID_4_">
				<use xlink:href="#SVGID_3_"  overflow="visible"/>
			</clipPath>
			<path clip-path="url(#SVGID_4_)" fill="#FFFFFF" d="M74.894,74.978c0,0,26.661,32.862,65.723,33.482
				c0,0-7.44-19.221,11.781-33.482c0,0,23.561-16.741,40.302,4.34c0,0,18.601-5.58,20.255-8.06c0,0-3.514,12.504-13.641,17.309
				c0,0,15.707-3.255,18.187-4.702c0,0-11.574,14.261-16.121,15.708c0,0,1.24,13.641-4.96,34.308c0,0-6.407,27.281-38.028,47.329
				c0,0-45.363,29.22-94.658-2.026c0,0,24.186,4.464,46.504-12.704c0,0-21.975-0.687-29.53-21.976c0,0,10.301,2.06,14.422-1.03
				c0,0-23.006-3.09-25.753-31.59c0,0,7.211,6.524,14.765,4.807C84.141,116.69,61.042,101.027,74.894,74.978"/>
		</g>
	</g>
</g>
</svg>
